<?xml version="1.0" encoding="utf-8" standalone="no"?>
<!DOCTYPE svg PUBLIC "-//W3C//DTD SVG 1.1//EN"
  "http://www.w3.org/Graphics/SVG/1.1/DTD/svg11.dtd">
<svg xmlns:xlink="http://www.w3.org/1999/xlink" width="460.8pt" height="345.6pt" viewBox="0 0 460.8 345.6" xmlns="http://www.w3.org/2000/svg" version="1.1">
 <metadata>
  <rdf:RDF xmlns:dc="http://purl.org/dc/elements/1.1/" xmlns:cc="http://creativecommons.org/ns#" xmlns:rdf="http://www.w3.org/1999/02/22-rdf-syntax-ns#">
   <cc:Work>
    <dc:type rdf:resource="http://purl.org/dc/dcmitype/StillImage"/>
    <dc:date>2024-11-02T13:26:22.528529</dc:date>
    <dc:format>image/svg+xml</dc:format>
    <dc:creator>
     <cc:Agent>
      <dc:title>Matplotlib v3.9.2, https://matplotlib.org/</dc:title>
     </cc:Agent>
    </dc:creator>
   </cc:Work>
  </rdf:RDF>
 </metadata>
 <defs>
  <style type="text/css">*{stroke-linejoin: round; stroke-linecap: butt}</style>
 </defs>
 <g id="figure_1">
  <g id="patch_1">
   <path d="M 0 345.6 
L 460.8 345.6 
L 460.8 0 
L 0 0 
z
" style="fill: #ffffff"/>
  </g>
  <g id="axes_1">
   <g id="patch_2">
    <path d="M 57.6 307.584 
L 414.72 307.584 
L 414.72 41.472 
L 57.6 41.472 
z
" style="fill: #ffffff"/>
   </g>
   <g id="matplotlib.axis_1">
    <g id="xtick_1">
     <g id="line2d_1">
      <defs>
       <path id="mac828fe69e" d="M 0 0 
L 0 3.5 
" style="stroke: #000000; stroke-width: 0.8"/>
      </defs>
      <g>
       <use xlink:href="#mac828fe69e" x="73.832727" y="307.584" style="stroke: #000000; stroke-width: 0.8"/>
      </g>
     </g>
     <g id="text_1">
      <!-- 0 -->
      <g transform="translate(70.651477 322.182437) scale(0.1 -0.1)">
       <defs>
        <path id="DejaVuSans-30" d="M 2034 4250 
Q 1547 4250 1301 3770 
Q 1056 3291 1056 2328 
Q 1056 1369 1301 889 
Q 1547 409 2034 409 
Q 2525 409 2770 889 
Q 3016 1369 3016 2328 
Q 3016 3291 2770 3770 
Q 2525 4250 2034 4250 
z
M 2034 4750 
Q 2819 4750 3233 4129 
Q 3647 3509 3647 2328 
Q 3647 1150 3233 529 
Q 2819 -91 2034 -91 
Q 1250 -91 836 529 
Q 422 1150 422 2328 
Q 422 3509 836 4129 
Q 1250 4750 2034 4750 
z
" transform="scale(0.015625)"/>
       </defs>
       <use xlink:href="#DejaVuSans-30"/>
      </g>
     </g>
    </g>
    <g id="xtick_2">
     <g id="line2d_2">
      <g>
       <use xlink:href="#mac828fe69e" x="135.088302" y="307.584" style="stroke: #000000; stroke-width: 0.8"/>
      </g>
     </g>
     <g id="text_2">
      <!-- 10 -->
      <g transform="translate(128.725802 322.182437) scale(0.1 -0.1)">
       <defs>
        <path id="DejaVuSans-31" d="M 794 531 
L 1825 531 
L 1825 4091 
L 703 3866 
L 703 4441 
L 1819 4666 
L 2450 4666 
L 2450 531 
L 3481 531 
L 3481 0 
L 794 0 
L 794 531 
z
" transform="scale(0.015625)"/>
       </defs>
       <use xlink:href="#DejaVuSans-31"/>
       <use xlink:href="#DejaVuSans-30" x="63.623047"/>
      </g>
     </g>
    </g>
    <g id="xtick_3">
     <g id="line2d_3">
      <g>
       <use xlink:href="#mac828fe69e" x="196.343877" y="307.584" style="stroke: #000000; stroke-width: 0.8"/>
      </g>
     </g>
     <g id="text_3">
      <!-- 20 -->
      <g transform="translate(189.981377 322.182437) scale(0.1 -0.1)">
       <defs>
        <path id="DejaVuSans-32" d="M 1228 531 
L 3431 531 
L 3431 0 
L 469 0 
L 469 531 
Q 828 903 1448 1529 
Q 2069 2156 2228 2338 
Q 2531 2678 2651 2914 
Q 2772 3150 2772 3378 
Q 2772 3750 2511 3984 
Q 2250 4219 1831 4219 
Q 1534 4219 1204 4116 
Q 875 4013 500 3803 
L 500 4441 
Q 881 4594 1212 4672 
Q 1544 4750 1819 4750 
Q 2544 4750 2975 4387 
Q 3406 4025 3406 3419 
Q 3406 3131 3298 2873 
Q 3191 2616 2906 2266 
Q 2828 2175 2409 1742 
Q 1991 1309 1228 531 
z
" transform="scale(0.015625)"/>
       </defs>
       <use xlink:href="#DejaVuSans-32"/>
       <use xlink:href="#DejaVuSans-30" x="63.623047"/>
      </g>
     </g>
    </g>
    <g id="xtick_4">
     <g id="line2d_4">
      <g>
       <use xlink:href="#mac828fe69e" x="257.599451" y="307.584" style="stroke: #000000; stroke-width: 0.8"/>
      </g>
     </g>
     <g id="text_4">
      <!-- 30 -->
      <g transform="translate(251.236951 322.182437) scale(0.1 -0.1)">
       <defs>
        <path id="DejaVuSans-33" d="M 2597 2516 
Q 3050 2419 3304 2112 
Q 3559 1806 3559 1356 
Q 3559 666 3084 287 
Q 2609 -91 1734 -91 
Q 1441 -91 1130 -33 
Q 819 25 488 141 
L 488 750 
Q 750 597 1062 519 
Q 1375 441 1716 441 
Q 2309 441 2620 675 
Q 2931 909 2931 1356 
Q 2931 1769 2642 2001 
Q 2353 2234 1838 2234 
L 1294 2234 
L 1294 2753 
L 1863 2753 
Q 2328 2753 2575 2939 
Q 2822 3125 2822 3475 
Q 2822 3834 2567 4026 
Q 2313 4219 1838 4219 
Q 1578 4219 1281 4162 
Q 984 4106 628 3988 
L 628 4550 
Q 988 4650 1302 4700 
Q 1616 4750 1894 4750 
Q 2613 4750 3031 4423 
Q 3450 4097 3450 3541 
Q 3450 3153 3228 2886 
Q 3006 2619 2597 2516 
z
" transform="scale(0.015625)"/>
       </defs>
       <use xlink:href="#DejaVuSans-33"/>
       <use xlink:href="#DejaVuSans-30" x="63.623047"/>
      </g>
     </g>
    </g>
    <g id="xtick_5">
     <g id="line2d_5">
      <g>
       <use xlink:href="#mac828fe69e" x="318.855026" y="307.584" style="stroke: #000000; stroke-width: 0.8"/>
      </g>
     </g>
     <g id="text_5">
      <!-- 40 -->
      <g transform="translate(312.492526 322.182437) scale(0.1 -0.1)">
       <defs>
        <path id="DejaVuSans-34" d="M 2419 4116 
L 825 1625 
L 2419 1625 
L 2419 4116 
z
M 2253 4666 
L 3047 4666 
L 3047 1625 
L 3713 1625 
L 3713 1100 
L 3047 1100 
L 3047 0 
L 2419 0 
L 2419 1100 
L 313 1100 
L 313 1709 
L 2253 4666 
z
" transform="scale(0.015625)"/>
       </defs>
       <use xlink:href="#DejaVuSans-34"/>
       <use xlink:href="#DejaVuSans-30" x="63.623047"/>
      </g>
     </g>
    </g>
    <g id="xtick_6">
     <g id="line2d_6">
      <g>
       <use xlink:href="#mac828fe69e" x="380.1106" y="307.584" style="stroke: #000000; stroke-width: 0.8"/>
      </g>
     </g>
     <g id="text_6">
      <!-- 50 -->
      <g transform="translate(373.7481 322.182437) scale(0.1 -0.1)">
       <defs>
        <path id="DejaVuSans-35" d="M 691 4666 
L 3169 4666 
L 3169 4134 
L 1269 4134 
L 1269 2991 
Q 1406 3038 1543 3061 
Q 1681 3084 1819 3084 
Q 2600 3084 3056 2656 
Q 3513 2228 3513 1497 
Q 3513 744 3044 326 
Q 2575 -91 1722 -91 
Q 1428 -91 1123 -41 
Q 819 9 494 109 
L 494 744 
Q 775 591 1075 516 
Q 1375 441 1709 441 
Q 2250 441 2565 725 
Q 2881 1009 2881 1497 
Q 2881 1984 2565 2268 
Q 2250 2553 1709 2553 
Q 1456 2553 1204 2497 
Q 953 2441 691 2322 
L 691 4666 
z
" transform="scale(0.015625)"/>
       </defs>
       <use xlink:href="#DejaVuSans-35"/>
       <use xlink:href="#DejaVuSans-30" x="63.623047"/>
      </g>
     </g>
    </g>
   </g>
   <g id="matplotlib.axis_2">
    <g id="ytick_1">
     <g id="line2d_7">
      <defs>
       <path id="m5c84c53e4d" d="M 0 0 
L -3.5 0 
" style="stroke: #000000; stroke-width: 0.8"/>
      </defs>
      <g>
       <use xlink:href="#m5c84c53e4d" x="57.6" y="305.693737" style="stroke: #000000; stroke-width: 0.8"/>
      </g>
     </g>
     <g id="text_7">
      <!-- 9.25 -->
      <g transform="translate(28.334375 309.492956) scale(0.1 -0.1)">
       <defs>
        <path id="DejaVuSans-39" d="M 703 97 
L 703 672 
Q 941 559 1184 500 
Q 1428 441 1663 441 
Q 2288 441 2617 861 
Q 2947 1281 2994 2138 
Q 2813 1869 2534 1725 
Q 2256 1581 1919 1581 
Q 1219 1581 811 2004 
Q 403 2428 403 3163 
Q 403 3881 828 4315 
Q 1253 4750 1959 4750 
Q 2769 4750 3195 4129 
Q 3622 3509 3622 2328 
Q 3622 1225 3098 567 
Q 2575 -91 1691 -91 
Q 1453 -91 1209 -44 
Q 966 3 703 97 
z
M 1959 2075 
Q 2384 2075 2632 2365 
Q 2881 2656 2881 3163 
Q 2881 3666 2632 3958 
Q 2384 4250 1959 4250 
Q 1534 4250 1286 3958 
Q 1038 3666 1038 3163 
Q 1038 2656 1286 2365 
Q 1534 2075 1959 2075 
z
" transform="scale(0.015625)"/>
        <path id="DejaVuSans-2e" d="M 684 794 
L 1344 794 
L 1344 0 
L 684 0 
L 684 794 
z
" transform="scale(0.015625)"/>
       </defs>
       <use xlink:href="#DejaVuSans-39"/>
       <use xlink:href="#DejaVuSans-2e" x="63.623047"/>
       <use xlink:href="#DejaVuSans-32" x="95.410156"/>
       <use xlink:href="#DejaVuSans-35" x="159.033203"/>
      </g>
     </g>
    </g>
    <g id="ytick_2">
     <g id="line2d_8">
      <g>
       <use xlink:href="#m5c84c53e4d" x="57.6" y="272.446712" style="stroke: #000000; stroke-width: 0.8"/>
      </g>
     </g>
     <g id="text_8">
      <!-- 9.50 -->
      <g transform="translate(28.334375 276.245931) scale(0.1 -0.1)">
       <use xlink:href="#DejaVuSans-39"/>
       <use xlink:href="#DejaVuSans-2e" x="63.623047"/>
       <use xlink:href="#DejaVuSans-35" x="95.410156"/>
       <use xlink:href="#DejaVuSans-30" x="159.033203"/>
      </g>
     </g>
    </g>
    <g id="ytick_3">
     <g id="line2d_9">
      <g>
       <use xlink:href="#m5c84c53e4d" x="57.6" y="239.199687" style="stroke: #000000; stroke-width: 0.8"/>
      </g>
     </g>
     <g id="text_9">
      <!-- 9.75 -->
      <g transform="translate(28.334375 242.998906) scale(0.1 -0.1)">
       <defs>
        <path id="DejaVuSans-37" d="M 525 4666 
L 3525 4666 
L 3525 4397 
L 1831 0 
L 1172 0 
L 2766 4134 
L 525 4134 
L 525 4666 
z
" transform="scale(0.015625)"/>
       </defs>
       <use xlink:href="#DejaVuSans-39"/>
       <use xlink:href="#DejaVuSans-2e" x="63.623047"/>
       <use xlink:href="#DejaVuSans-37" x="95.410156"/>
       <use xlink:href="#DejaVuSans-35" x="159.033203"/>
      </g>
     </g>
    </g>
    <g id="ytick_4">
     <g id="line2d_10">
      <g>
       <use xlink:href="#m5c84c53e4d" x="57.6" y="205.952662" style="stroke: #000000; stroke-width: 0.8"/>
      </g>
     </g>
     <g id="text_10">
      <!-- 10.00 -->
      <g transform="translate(21.971875 209.751881) scale(0.1 -0.1)">
       <use xlink:href="#DejaVuSans-31"/>
       <use xlink:href="#DejaVuSans-30" x="63.623047"/>
       <use xlink:href="#DejaVuSans-2e" x="127.246094"/>
       <use xlink:href="#DejaVuSans-30" x="159.033203"/>
       <use xlink:href="#DejaVuSans-30" x="222.65625"/>
      </g>
     </g>
    </g>
    <g id="ytick_5">
     <g id="line2d_11">
      <g>
       <use xlink:href="#m5c84c53e4d" x="57.6" y="172.705637" style="stroke: #000000; stroke-width: 0.8"/>
      </g>
     </g>
     <g id="text_11">
      <!-- 10.25 -->
      <g transform="translate(21.971875 176.504856) scale(0.1 -0.1)">
       <use xlink:href="#DejaVuSans-31"/>
       <use xlink:href="#DejaVuSans-30" x="63.623047"/>
       <use xlink:href="#DejaVuSans-2e" x="127.246094"/>
       <use xlink:href="#DejaVuSans-32" x="159.033203"/>
       <use xlink:href="#DejaVuSans-35" x="222.65625"/>
      </g>
     </g>
    </g>
    <g id="ytick_6">
     <g id="line2d_12">
      <g>
       <use xlink:href="#m5c84c53e4d" x="57.6" y="139.458612" style="stroke: #000000; stroke-width: 0.8"/>
      </g>
     </g>
     <g id="text_12">
      <!-- 10.50 -->
      <g transform="translate(21.971875 143.257831) scale(0.1 -0.1)">
       <use xlink:href="#DejaVuSans-31"/>
       <use xlink:href="#DejaVuSans-30" x="63.623047"/>
       <use xlink:href="#DejaVuSans-2e" x="127.246094"/>
       <use xlink:href="#DejaVuSans-35" x="159.033203"/>
       <use xlink:href="#DejaVuSans-30" x="222.65625"/>
      </g>
     </g>
    </g>
    <g id="ytick_7">
     <g id="line2d_13">
      <g>
       <use xlink:href="#m5c84c53e4d" x="57.6" y="106.211587" style="stroke: #000000; stroke-width: 0.8"/>
      </g>
     </g>
     <g id="text_13">
      <!-- 10.75 -->
      <g transform="translate(21.971875 110.010806) scale(0.1 -0.1)">
       <use xlink:href="#DejaVuSans-31"/>
       <use xlink:href="#DejaVuSans-30" x="63.623047"/>
       <use xlink:href="#DejaVuSans-2e" x="127.246094"/>
       <use xlink:href="#DejaVuSans-37" x="159.033203"/>
       <use xlink:href="#DejaVuSans-35" x="222.65625"/>
      </g>
     </g>
    </g>
    <g id="ytick_8">
     <g id="line2d_14">
      <g>
       <use xlink:href="#m5c84c53e4d" x="57.6" y="72.964562" style="stroke: #000000; stroke-width: 0.8"/>
      </g>
     </g>
     <g id="text_14">
      <!-- 11.00 -->
      <g transform="translate(21.971875 76.763781) scale(0.1 -0.1)">
       <use xlink:href="#DejaVuSans-31"/>
       <use xlink:href="#DejaVuSans-31" x="63.623047"/>
       <use xlink:href="#DejaVuSans-2e" x="127.246094"/>
       <use xlink:href="#DejaVuSans-30" x="159.033203"/>
       <use xlink:href="#DejaVuSans-30" x="222.65625"/>
      </g>
     </g>
    </g>
   </g>
   <g id="line2d_15">
    <path d="M 73.832727 148.095361 
L 79.958285 136.948975 
L 86.083842 125.802588 
L 92.2094 114.656201 
L 98.334957 103.509815 
L 104.460515 92.363428 
L 110.586072 81.217041 
L 116.71163 70.070655 
L 122.837187 58.924268 
L 128.962744 68.35643 
L 135.088302 77.788592 
L 141.213859 87.220754 
L 147.339417 96.652916 
L 153.464974 106.085078 
L 159.590532 115.51724 
L 165.716089 124.949402 
L 171.841647 134.381564 
L 177.967204 143.813726 
L 184.092762 153.245888 
L 190.218319 162.67805 
L 196.343877 172.110212 
L 202.469434 181.542374 
L 208.594991 190.974536 
L 214.720549 200.406698 
L 220.846106 209.83886 
L 226.971664 219.271022 
L 233.097221 228.703184 
L 239.222779 238.135346 
L 245.348336 247.562291 
L 251.473894 252.704776 
L 257.599451 252.938507 
L 263.725009 250.451319 
L 269.850566 246.215798 
L 275.976123 240.759083 
L 282.101681 234.401759 
L 288.227238 227.354235 
L 294.352796 219.762341 
L 300.478353 211.731375 
L 306.603911 203.339847 
L 312.729468 194.647817 
L 318.855026 185.702218 
L 324.980583 176.540377 
L 331.106141 167.192436 
L 337.231698 157.683052 
L 343.357256 148.032627 
L 349.482813 138.258208 
L 355.60837 128.37417 
L 361.733928 118.392726 
L 367.859485 108.324331 
L 373.985043 98.177989 
L 380.1106 87.961502 
L 386.236158 77.681668 
L 392.361715 67.344437 
L 398.487273 56.95504 
" clip-path="url(#p9e358ac944)" style="fill: none; stroke: #1f77b4; stroke-width: 1.5; stroke-linecap: square"/>
   </g>
   <g id="line2d_16">
    <path d="M 73.832727 148.111433 
L 79.958285 136.965046 
L 86.083842 125.818659 
L 92.2094 114.672273 
L 98.334957 103.525886 
L 104.460515 92.3795 
L 110.586072 81.233113 
L 116.71163 70.086726 
L 122.837187 58.94034 
L 128.962744 69.152637 
L 135.088302 79.364934 
L 141.213859 89.577231 
L 147.339417 99.789528 
L 153.464974 110.001825 
L 159.590532 120.214122 
L 165.716089 130.426419 
L 171.841647 140.638716 
L 177.967204 150.851013 
L 184.092762 161.06331 
L 190.218319 171.275607 
L 196.343877 181.487904 
L 202.469434 191.700201 
L 208.594991 201.912498 
L 214.720549 212.124795 
L 220.846106 222.337092 
L 226.971664 232.549389 
L 233.097221 242.761686 
L 239.222779 252.249978 
L 245.348336 256.392818 
L 251.473894 256.682695 
L 257.599451 254.558406 
L 263.725009 250.775257 
L 269.850566 245.783216 
L 275.976123 239.873279 
L 282.101681 233.244858 
L 288.227238 226.04064 
L 294.352796 218.366207 
L 300.478353 210.301808 
L 306.603911 201.909798 
L 312.729468 193.239523 
L 318.855026 184.33065 
L 324.980583 175.215494 
L 331.106141 165.920693 
L 337.231698 156.468426 
L 343.357256 146.877335 
L 349.482813 137.16321 
L 355.60837 127.339529 
L 361.733928 117.41787 
L 367.859485 107.408236 
L 373.985043 97.319323 
L 380.1106 87.158724 
L 386.236158 76.933102 
L 392.361715 66.648327 
L 398.487273 56.309594 
" clip-path="url(#p9e358ac944)" style="fill: none; stroke: #ff7f0e; stroke-width: 1.5; stroke-linecap: square"/>
   </g>
   <g id="line2d_17">
    <path d="M 73.832727 148.113625 
L 79.958285 136.967239 
L 86.083842 125.820852 
L 92.2094 114.674465 
L 98.334957 103.528079 
L 104.460515 92.381692 
L 110.586072 81.235305 
L 116.71163 70.088919 
L 122.837187 58.942532 
L 128.962744 69.305666 
L 135.088302 79.6688 
L 141.213859 90.031934 
L 147.339417 100.395068 
L 153.464974 110.758202 
L 159.590532 121.121335 
L 165.716089 131.484469 
L 171.841647 141.847603 
L 177.967204 152.210737 
L 184.092762 162.573871 
L 190.218319 172.937005 
L 196.343877 183.300139 
L 202.469434 193.663273 
L 208.594991 204.026407 
L 214.720549 214.389541 
L 220.846106 224.752675 
L 226.971664 235.115809 
L 233.097221 245.467457 
L 239.222779 252.231463 
L 245.348336 254.525977 
L 251.473894 253.995875 
L 257.599451 251.516087 
L 263.725009 247.611864 
L 269.850566 242.624542 
L 275.976123 236.788789 
L 282.101681 230.272883 
L 288.227238 223.201526 
L 294.352796 215.669596 
L 300.478353 207.750858 
L 306.603911 199.503713 
L 312.729468 190.97511 
L 318.855026 182.203302 
L 324.980583 173.219814 
L 331.106141 164.050892 
L 337.231698 154.718588 
L 343.357256 145.241578 
L 349.482813 135.635792 
L 355.60837 125.914911 
L 361.733928 116.090754 
L 367.859485 106.173585 
L 373.985043 96.172364 
L 380.1106 86.094951 
L 386.236158 75.948266 
L 392.361715 65.738429 
L 398.487273 55.470874 
" clip-path="url(#p9e358ac944)" style="fill: none; stroke: #2ca02c; stroke-width: 1.5; stroke-linecap: square"/>
   </g>
   <g id="line2d_18">
    <path d="M 73.832727 148.101312 
L 79.958285 136.954925 
L 86.083842 125.808539 
L 92.2094 114.662152 
L 98.334957 103.515765 
L 104.460515 92.369379 
L 110.586072 81.222992 
L 116.71163 70.076605 
L 122.837187 58.930219 
L 128.962744 69.115561 
L 135.088302 79.300903 
L 141.213859 89.486245 
L 147.339417 99.671588 
L 153.464974 109.85693 
L 159.590532 120.042272 
L 165.716089 130.227614 
L 171.841647 140.412956 
L 177.967204 150.598298 
L 184.092762 160.783641 
L 190.218319 170.968983 
L 196.343877 181.154325 
L 202.469434 191.339667 
L 208.594991 201.525009 
L 214.720549 211.710352 
L 220.846106 221.895694 
L 226.971664 232.081036 
L 233.097221 241.953178 
L 239.222779 247.675721 
L 245.348336 249.67822 
L 251.473894 249.166433 
L 257.599451 246.844166 
L 263.725009 243.160006 
L 269.850566 238.417958 
L 275.976123 232.833606 
L 282.101681 226.565285 
L 288.227238 219.732571 
L 294.352796 212.427849 
L 300.478353 204.723869 
L 306.603911 196.67884 
L 312.729468 188.339991 
L 318.855026 179.746098 
L 324.980583 170.929339 
L 331.106141 161.916664 
L 337.231698 152.730833 
L 343.357256 143.391213 
L 349.482813 133.914393 
L 355.60837 124.314672 
L 361.733928 114.604446 
L 367.859485 104.794511 
L 373.985043 94.894322 
L 380.1106 84.912189 
L 386.236158 74.855449 
L 392.361715 64.730605 
L 398.487273 54.543438 
" clip-path="url(#p9e358ac944)" style="fill: none; stroke: #d62728; stroke-width: 1.5; stroke-linecap: square"/>
   </g>
   <g id="line2d_19">
    <path d="M 73.832727 148.114142 
L 79.958285 136.967756 
L 86.083842 125.821369 
L 92.2094 114.674982 
L 98.334957 103.528596 
L 104.460515 92.382209 
L 110.586072 81.235822 
L 116.71163 70.089436 
L 122.837187 58.943049 
L 128.962744 75.240781 
L 135.088302 91.538513 
L 141.213859 107.836245 
L 147.339417 124.133977 
L 153.464974 140.431709 
L 159.590532 156.72944 
L 165.716089 173.027172 
L 171.841647 189.324904 
L 177.967204 205.622636 
L 184.092762 221.920368 
L 190.218319 238.2181 
L 196.343877 254.515832 
L 202.469434 270.813564 
L 208.594991 285.105657 
L 214.720549 292.507042 
L 220.846106 295.453566 
L 226.971664 295.488 
L 233.097221 293.47564 
L 239.222779 289.952619 
L 245.348336 285.274454 
L 251.473894 279.68885 
L 257.599451 273.375046 
L 263.725009 266.466669 
L 269.850566 259.065787 
L 275.976123 251.25195 
L 282.101681 243.088217 
L 288.227238 234.625306 
L 294.352796 225.90453 
L 300.478353 216.959914 
L 306.603911 207.819752 
L 312.729468 198.507784 
L 318.855026 189.044083 
L 324.980583 179.445738 
L 331.106141 169.727399 
L 337.231698 159.901692 
L 343.357256 149.97956 
L 349.482813 139.970536 
L 355.60837 129.882961 
L 361.733928 119.724162 
L 367.859485 109.500607 
L 373.985043 99.21802 
L 380.1106 88.881488 
L 386.236158 78.495547 
L 392.361715 68.064251 
L 398.487273 57.591236 
" clip-path="url(#p9e358ac944)" style="fill: none; stroke: #9467bd; stroke-width: 1.5; stroke-linecap: square"/>
   </g>
   <g id="line2d_20">
    <path d="M 73.832727 148.114567 
L 79.958285 136.96818 
L 86.083842 125.821794 
L 92.2094 114.675407 
L 98.334957 103.52902 
L 104.460515 92.382634 
L 110.586072 81.236247 
L 116.71163 70.08986 
L 122.837187 58.943474 
L 128.962744 68.77651 
L 135.088302 78.609546 
L 141.213859 88.442582 
L 147.339417 98.275618 
L 153.464974 108.108654 
L 159.590532 117.941691 
L 165.716089 127.774727 
L 171.841647 137.607763 
L 177.967204 147.440799 
L 184.092762 157.273835 
L 190.218319 167.106871 
L 196.343877 176.939907 
L 202.469434 186.772944 
L 208.594991 196.60598 
L 214.720549 206.439016 
L 220.846106 216.272052 
L 226.971664 226.105088 
L 233.097221 235.606163 
L 239.222779 241.293833 
L 245.348336 243.533366 
L 251.473894 243.358346 
L 257.599451 241.402854 
L 263.725009 238.085 
L 269.850566 233.695215 
L 275.976123 228.443359 
L 282.101681 222.485846 
L 288.227238 215.94221 
L 294.352796 208.905709 
L 300.478353 201.450374 
L 306.603911 193.635857 
L 312.729468 185.510835 
L 318.855026 177.115485 
L 324.980583 168.483292 
L 331.106141 159.642413 
L 337.231698 150.616709 
L 343.357256 141.426548 
L 349.482813 132.089425 
L 355.60837 122.620457 
L 361.733928 113.032779 
L 367.859485 103.337856 
L 373.985043 93.545744 
L 380.1106 83.665299 
L 386.236158 73.704354 
L 392.361715 63.669858 
L 398.487273 53.568 
" clip-path="url(#p9e358ac944)" style="fill: none; stroke: #8c564b; stroke-width: 1.5; stroke-linecap: square"/>
   </g>
   <g id="line2d_21">
    <path d="M 73.832727 148.110059 
L 79.958285 136.963673 
L 86.083842 125.817286 
L 92.2094 114.670899 
L 98.334957 103.524513 
L 104.460515 92.378126 
L 110.586072 81.231739 
L 116.71163 70.085353 
L 122.837187 58.938966 
L 128.962744 73.819273 
L 135.088302 88.69958 
L 141.213859 103.579888 
L 147.339417 118.460195 
L 153.464974 133.340502 
L 159.590532 148.220809 
L 165.716089 163.101117 
L 171.841647 177.981424 
L 177.967204 192.861731 
L 184.092762 207.742038 
L 190.218319 222.622345 
L 196.343877 237.502653 
L 202.469434 252.38296 
L 208.594991 267.161123 
L 214.720549 277.21219 
L 220.846106 282.171987 
L 226.971664 283.803681 
L 233.097221 283.096182 
L 239.222779 280.662214 
L 245.348336 276.90808 
L 251.473894 272.116874 
L 257.599451 266.493438 
L 263.725009 260.190491 
L 269.850566 253.324681 
L 275.976123 245.986923 
L 282.101681 238.249283 
L 288.227238 230.169726 
L 294.352796 221.795466 
L 300.478353 213.165388 
L 306.603911 204.31183 
L 312.729468 195.261922 
L 318.855026 186.038604 
L 324.980583 176.661409 
L 331.106141 167.147076 
L 337.231698 157.510037 
L 343.357256 147.762799 
L 349.482813 137.916256 
L 355.60837 127.979939 
L 361.733928 117.962225 
L 367.859485 107.870502 
L 373.985043 97.711315 
L 380.1106 87.490477 
L 386.236158 77.213171 
L 392.361715 66.884031 
L 398.487273 56.507212 
" clip-path="url(#p9e358ac944)" style="fill: none; stroke: #e377c2; stroke-width: 1.5; stroke-linecap: square"/>
   </g>
   <g id="patch_3">
    <path d="M 57.6 307.584 
L 57.6 41.472 
" style="fill: none; stroke: #000000; stroke-width: 0.8; stroke-linejoin: miter; stroke-linecap: square"/>
   </g>
   <g id="patch_4">
    <path d="M 414.72 307.584 
L 414.72 41.472 
" style="fill: none; stroke: #000000; stroke-width: 0.8; stroke-linejoin: miter; stroke-linecap: square"/>
   </g>
   <g id="patch_5">
    <path d="M 57.6 307.584 
L 414.72 307.584 
" style="fill: none; stroke: #000000; stroke-width: 0.8; stroke-linejoin: miter; stroke-linecap: square"/>
   </g>
   <g id="patch_6">
    <path d="M 57.6 41.472 
L 414.72 41.472 
" style="fill: none; stroke: #000000; stroke-width: 0.8; stroke-linejoin: miter; stroke-linecap: square"/>
   </g>
   <g id="legend_1">
    <g id="patch_7">
     <path d="M 64.6 302.584 
L 102.9625 302.584 
Q 104.9625 302.584 104.9625 300.584 
L 104.9625 198.837125 
Q 104.9625 196.837125 102.9625 196.837125 
L 64.6 196.837125 
Q 62.6 196.837125 62.6 198.837125 
L 62.6 300.584 
Q 62.6 302.584 64.6 302.584 
z
" style="fill: #ffffff; opacity: 0.8; stroke: #cccccc; stroke-linejoin: miter"/>
    </g>
    <g id="line2d_22">
     <path d="M 66.6 204.935563 
L 76.6 204.935563 
L 86.6 204.935563 
" style="fill: none; stroke: #1f77b4; stroke-width: 1.5; stroke-linecap: square"/>
    </g>
    <g id="text_15">
     <!-- 1 -->
     <g transform="translate(94.6 208.435563) scale(0.1 -0.1)">
      <use xlink:href="#DejaVuSans-31"/>
     </g>
    </g>
    <g id="line2d_23">
     <path d="M 66.6 219.613688 
L 76.6 219.613688 
L 86.6 219.613688 
" style="fill: none; stroke: #ff7f0e; stroke-width: 1.5; stroke-linecap: square"/>
    </g>
    <g id="text_16">
     <!-- 2 -->
     <g transform="translate(94.6 223.113688) scale(0.1 -0.1)">
      <use xlink:href="#DejaVuSans-32"/>
     </g>
    </g>
    <g id="line2d_24">
     <path d="M 66.6 234.291812 
L 76.6 234.291812 
L 86.6 234.291812 
" style="fill: none; stroke: #2ca02c; stroke-width: 1.5; stroke-linecap: square"/>
    </g>
    <g id="text_17">
     <!-- 3 -->
     <g transform="translate(94.6 237.791812) scale(0.1 -0.1)">
      <use xlink:href="#DejaVuSans-33"/>
     </g>
    </g>
    <g id="line2d_25">
     <path d="M 66.6 248.969938 
L 76.6 248.969938 
L 86.6 248.969938 
" style="fill: none; stroke: #d62728; stroke-width: 1.5; stroke-linecap: square"/>
    </g>
    <g id="text_18">
     <!-- 4 -->
     <g transform="translate(94.6 252.469938) scale(0.1 -0.1)">
      <use xlink:href="#DejaVuSans-34"/>
     </g>
    </g>
    <g id="line2d_26">
     <path d="M 66.6 263.648063 
L 76.6 263.648063 
L 86.6 263.648063 
" style="fill: none; stroke: #9467bd; stroke-width: 1.5; stroke-linecap: square"/>
    </g>
    <g id="text_19">
     <!-- 5 -->
     <g transform="translate(94.6 267.148063) scale(0.1 -0.1)">
      <use xlink:href="#DejaVuSans-35"/>
     </g>
    </g>
    <g id="line2d_27">
     <path d="M 66.6 278.326188 
L 76.6 278.326188 
L 86.6 278.326188 
" style="fill: none; stroke: #8c564b; stroke-width: 1.5; stroke-linecap: square"/>
    </g>
    <g id="text_20">
     <!-- 6 -->
     <g transform="translate(94.6 281.826188) scale(0.1 -0.1)">
      <defs>
       <path id="DejaVuSans-36" d="M 2113 2584 
Q 1688 2584 1439 2293 
Q 1191 2003 1191 1497 
Q 1191 994 1439 701 
Q 1688 409 2113 409 
Q 2538 409 2786 701 
Q 3034 994 3034 1497 
Q 3034 2003 2786 2293 
Q 2538 2584 2113 2584 
z
M 3366 4563 
L 3366 3988 
Q 3128 4100 2886 4159 
Q 2644 4219 2406 4219 
Q 1781 4219 1451 3797 
Q 1122 3375 1075 2522 
Q 1259 2794 1537 2939 
Q 1816 3084 2150 3084 
Q 2853 3084 3261 2657 
Q 3669 2231 3669 1497 
Q 3669 778 3244 343 
Q 2819 -91 2113 -91 
Q 1303 -91 875 529 
Q 447 1150 447 2328 
Q 447 3434 972 4092 
Q 1497 4750 2381 4750 
Q 2619 4750 2861 4703 
Q 3103 4656 3366 4563 
z
" transform="scale(0.015625)"/>
      </defs>
      <use xlink:href="#DejaVuSans-36"/>
     </g>
    </g>
    <g id="line2d_28">
     <path d="M 66.6 293.004312 
L 76.6 293.004312 
L 86.6 293.004312 
" style="fill: none; stroke: #e377c2; stroke-width: 1.5; stroke-linecap: square"/>
    </g>
    <g id="text_21">
     <!-- 7 -->
     <g transform="translate(94.6 296.504312) scale(0.1 -0.1)">
      <use xlink:href="#DejaVuSans-37"/>
     </g>
    </g>
   </g>
  </g>
 </g>
 <defs>
  <clipPath id="p9e358ac944">
   <rect x="57.6" y="41.472" width="357.12" height="266.112"/>
  </clipPath>
 </defs>
</svg>
